<svg xmlns="http://www.w3.org/2000/svg" xmlns:xlink="http://www.w3.org/1999/xlink" width="138" height="138" viewBox="0 0 138 138">
  <defs>
    <clipPath id="clip-path">
      <circle id="Ellipse_4" data-name="Ellipse 4" cx="69" cy="69" r="69" transform="translate(0)" fill="#fff" stroke="#707070" stroke-width="1"/>
    </clipPath>
  </defs>
  <g id="js_icn" transform="translate(0)" clip-path="url(#clip-path)">
    <g id="surface1" transform="translate(0)">
      <path id="Path_43" data-name="Path 43" d="M138,69A69,69,0,1,1,69,0,69,69,0,0,1,138,69Z" fill="rgba(106,106,106,0.4)"/>
      <path id="Path_44" data-name="Path 44" d="M30.875,17.878V117.966h76.25V45.411L79.6,17.878Z" fill="rgba(208,208,208,0.46)"/>
      <path id="Path_45" data-name="Path 45" d="M56.521,51.672v9.075a3.474,3.474,0,0,1-.323,1.418,3.744,3.744,0,0,1-.973,1.3,4.275,4.275,0,0,1,.951,1.3,3.326,3.326,0,0,1,.345,1.418V75.7h2.237V79.3H53.4a.992.992,0,0,1-.606-.27,1.176,1.176,0,0,1-.326-.954V67.553a2.752,2.752,0,0,0-.526-1.682A2.156,2.156,0,0,0,50.594,65V61.841a1.275,1.275,0,0,0,.749-.243,2.189,2.189,0,0,0,.588-.628,3.727,3.727,0,0,0,.385-.809,2.507,2.507,0,0,0,.14-.79V49.281c0-.512.124-.844.367-.992a1.232,1.232,0,0,1,.566-.224h5.369v3.606Z" fill="#fff"/>
      <path id="Path_46" data-name="Path 46" d="M67.6,81.975l.973-4.172H67.113V72.86h4.016V77.8l-1.418,4.172Zm-.445-19.77V57.06h3.647v5.145Z" fill="#fff"/>
      <path id="Path_47" data-name="Path 47" d="M69,57.06v5.145h1.8V57.06Zm0,15.8v9.116h.709L71.127,77.8V72.86Z" fill="#fff"/>
      <path id="Path_48" data-name="Path 48" d="M79.512,51.672V48.066h5.307a1.232,1.232,0,0,1,.566.224c.243.148.364.48.364.992V59.37a2.9,2.9,0,0,0,.124.79,3.164,3.164,0,0,0,.364.809,2.226,2.226,0,0,0,.588.628,1.348,1.348,0,0,0,.79.243V65a2.156,2.156,0,0,0-1.348.871,2.755,2.755,0,0,0-.539,1.682V78.083a1.17,1.17,0,0,1-.323.954.992.992,0,0,1-.606.27H79.512V75.7h2.226V66.175a3.682,3.682,0,0,1,.3-1.418,3.536,3.536,0,0,1,.951-1.3,3.5,3.5,0,0,1-.951-1.3,3.671,3.671,0,0,1-.3-1.418V51.672Z" fill="#fff"/>
      <path id="Path_49" data-name="Path 49" d="M107.125,45.411,79.6,17.878V45.411Z" fill="rgba(208,208,208,0.46)"/>
      <path id="Path_50" data-name="Path 50" d="M30.875,93.8h76.25v24.169H30.875Z" fill="rgba(208,208,208,0.25)"/>
      <path id="Path_52" data-name="Path 52" d="M59.8,110.168a4.334,4.334,0,0,0,.973.456,4.566,4.566,0,0,0,1.577.251,2.765,2.765,0,0,0,1.385-.3,1.868,1.868,0,0,0,.787-.922,5.021,5.021,0,0,0,.353-1.544c.054-.612.084-1.334.084-2.156V98.465h2.857v7.477A24.04,24.04,0,0,1,67.652,109a6.127,6.127,0,0,1-.747,2.35,3.833,3.833,0,0,1-1.647,1.512,6.536,6.536,0,0,1-2.9.539,5.48,5.48,0,0,1-3.191-.911Z" fill="#fff"/>
      <path id="Path_53" data-name="Path 53" d="M79.482,102.317a3.63,3.63,0,0,0-.539-.391,6.309,6.309,0,0,0-.933-.488,8.017,8.017,0,0,0-1.191-.4,5.2,5.2,0,0,0-1.3-.167,2.915,2.915,0,0,0-1.76.437,1.445,1.445,0,0,0-.579,1.221,1.253,1.253,0,0,0,.218.757,1.865,1.865,0,0,0,.631.539,5.337,5.337,0,0,0,1.046.415q.631.186,1.461.391,1.078.291,1.957.623a5.348,5.348,0,0,1,1.491.827,3.4,3.4,0,0,1,.943,1.194,3.935,3.935,0,0,1,.332,1.709A4.269,4.269,0,0,1,80.808,111a3.746,3.746,0,0,1-1.2,1.348,5.234,5.234,0,0,1-1.738.757,8.9,8.9,0,0,1-2.062.237,11.049,11.049,0,0,1-3.271-.5,10.1,10.1,0,0,1-2.9-1.41l1.261-2.464a4.143,4.143,0,0,0,.674.485,10.932,10.932,0,0,0,1.151.6,9.013,9.013,0,0,0,1.469.507,6.681,6.681,0,0,0,1.658.208q2.361,0,2.361-1.512a1.234,1.234,0,0,0-.27-.809,2.245,2.245,0,0,0-.765-.579,7.189,7.189,0,0,0-1.2-.456c-.469-.137-.995-.291-1.574-.456a13.316,13.316,0,0,1-1.833-.633,4.8,4.8,0,0,1-1.294-.809,3.035,3.035,0,0,1-.779-1.078,3.725,3.725,0,0,1-.27-1.461,4.582,4.582,0,0,1,.415-1.986,4.005,4.005,0,0,1,1.151-1.45,5.14,5.14,0,0,1,1.709-.881,7.07,7.07,0,0,1,2.092-.3,8.129,8.129,0,0,1,2.857.485A10.727,10.727,0,0,1,80.725,100Z" fill="#fff"/>
    </g>
  </g>
</svg>
