<svg xmlns="http://www.w3.org/2000/svg" xmlns:xlink="http://www.w3.org/1999/xlink" width="138" height="138" viewBox="0 0 138 138">
  <defs>
    <clipPath id="clip-path">
      <circle id="Ellipse_4" data-name="Ellipse 4" cx="69" cy="69" r="69" transform="translate(-0.333)" fill="#fff" stroke="#707070" stroke-width="1"/>
    </clipPath>
  </defs>
  <g id="ps_icn" transform="translate(0.333)" clip-path="url(#clip-path)">
    <g id="photoshop">
      <circle id="Ellipse_7" data-name="Ellipse 7" cx="69" cy="69" r="69" transform="translate(-0.333)" fill="rgba(106,106,106,0.4)"/>
      <path id="Path_34" data-name="Path 34" d="M25.277,98.139V38.64c19.708,0,29.476-.2,33.565.892A15.62,15.62,0,0,1,67.4,45.357c4.455,5.792,4.259,15.547,1.461,20.8a16.913,16.913,0,0,1-11.283,8.684c-5.277,1.046-13.094.854-20.293.854V98.139ZM37.29,48.7V65.588c12.175,0,16.921.4,19.827-3.854a8.449,8.449,0,0,0-.539-9.973C53.524,48.384,50.2,48.7,37.29,48.7Z" transform="translate(-0.689)" fill="#fff"/>
      <path id="Path_35" data-name="Path 35" d="M72.461,85.84l11.447-1.747c1.065,4.852,4.337,6.779,9.213,6.779,3.72,0,8.156-.933,8.156-4.668,0-2.509-2.1-3.062-4.625-3.652q-13.8-3.04-17.493-5.56a11.1,11.1,0,0,1-5.121-9.7,11.955,11.955,0,0,1,4.423-9.417q4.423-3.814,13.719-3.808c9.417,0,16.441,2.261,19.075,11.4L100.5,67.456a6.663,6.663,0,0,0-2.612-3.846c-2.938-2.04-9.682-1.547-11.954-.081a2.58,2.58,0,0,0-.162,4.385c3.3,2.426,17.414,3.321,23.376,8.277a10.544,10.544,0,0,1,3.574,8.482,13.015,13.015,0,0,1-4.951,10.188q-4.951,4.259-14.652,4.261-8.811,0-13.943-3.571A16.455,16.455,0,0,1,72.461,85.84Z" transform="translate(-0.689)" fill="#fff"/>
    </g>
  </g>
</svg>
