<svg xmlns="http://www.w3.org/2000/svg" xmlns:xlink="http://www.w3.org/1999/xlink" width="138" height="138" viewBox="0 0 138 138">
  <defs>
    <clipPath id="clip-path">
      <circle id="Ellipse_4" data-name="Ellipse 4" cx="69" cy="69" r="69" transform="translate(0)" fill="#fff"/>
    </clipPath>
  </defs>
  <g id="sass_icn" transform="translate(0)" clip-path="url(#clip-path)">
    <g id="sass" transform="translate(0)">
      <path id="Path_41" data-name="Path 41" d="M138,69c0,2.129-.108,4.232-.3,6.307-.135,1.644-.35,3.288-.62,4.879A68.979,68.979,0,1,1,138,69Z" fill="rgba(106,106,106,0.4)"/>
      <path id="Path_42" data-name="Path 42" d="M120.427,76.816c-2.1.782-2.021.809-3.127-1.213a17.766,17.766,0,0,1-2.237-8.194,19.188,19.188,0,0,1,1.509-7.17c.7-1.833-.216-2.48-1.779-2.641a19.02,19.02,0,0,0-3.5,0c-2.992.3-3.288.566-4.1,3.477a31.467,31.467,0,0,1-1.644,5.121C103.608,70.24,101.4,74.121,99.161,78a9.166,9.166,0,0,1-1.321,2.048,15.2,15.2,0,0,1-2.4-8.005,20.251,20.251,0,0,1,1.671-7.978,1.253,1.253,0,0,0-.7-1.779,2.985,2.985,0,0,0-1.078-.35,15.694,15.694,0,0,0-5.714.4,2.01,2.01,0,0,0-1.59,1.644,26.667,26.667,0,0,1-1.7,5.391C84.2,74.175,82.072,79,79.916,83.8c-1.86,4.178-3.693,8.355-5.9,12.371-.162.3-.3.782-.674.674-.4-.108-.27-.593-.27-.916a22.888,22.888,0,0,1,1.078-6.873c.863-3.585,1.833-7.143,2.749-10.7a1.852,1.852,0,0,0-1.024-2.21,3.136,3.136,0,0,0-3.746.243,20.62,20.62,0,0,0,.189-4.016c-.135-2.857-1.455-4.69-3.746-5.121a7.584,7.584,0,0,0-4.771.889,23.745,23.745,0,0,0-8.652,7.17,3.29,3.29,0,0,1-.943.889c-4.42,2.426-8.868,4.825-13.288,7.25a.82.82,0,0,1-1.159-.189A61.048,61.048,0,0,0,32.4,76.9c-3.585-2.8-7.277-5.445-10.35-8.814a16.968,16.968,0,0,1-4.07-6.738c-1.24-4.259-.3-8.248,1.725-12.021a35.319,35.319,0,0,1,9.973-10.97,96.958,96.958,0,0,1,20.43-11.94c8.14-3.558,16.576-5.849,25.552-5.5a22.41,22.41,0,0,1,10.188,2.507A7.618,7.618,0,0,1,90,29.055a13.855,13.855,0,0,1-1.59,8.571c-3.046,5.984-7.87,10.242-13.584,13.557a44.863,44.863,0,0,1-15.309,5.445,28.223,28.223,0,0,1-9.029.35c-3.45-.539-6.657-1.671-9.029-4.474a.847.847,0,0,0-1.078-.323c-.485.243-.431.647-.4,1.051a3.184,3.184,0,0,0,.216.836,10.041,10.041,0,0,0,3.207,4.124c3.612,2.938,7.9,3.8,12.371,3.881a51.754,51.754,0,0,0,13.018-1.482c9.676-2.318,17.762-7.062,23.665-15.175,3.531-4.852,5.768-10.215,5.579-16.334A14.359,14.359,0,0,0,93.77,18.975c-3.369-3.315-7.547-4.986-12.021-5.984a44.508,44.508,0,0,0-15.121-.647,62.637,62.637,0,0,0-12.964,2.884A114.943,114.943,0,0,0,35.039,23.5a79.152,79.152,0,0,0-16.9,12.156c-4.474,4.313-8.3,9.056-10.458,14.986-.916,2.534-1.59,5.121-.97,7.87a22.192,22.192,0,0,0,4.8,9.326A62.542,62.542,0,0,0,23.557,78.407c3.5,2.507,7.17,4.8,10.539,7.52.943.755.943.755-.162,1.348-1.321.674-2.641,1.348-3.935,2.075C24.8,92.368,19.757,95.549,15.66,100a16.316,16.316,0,0,0-4.043,7.358,69.468,69.468,0,0,0,11.805,13.477c7.655-.593,13.53-4.582,17.87-11.186a22.922,22.922,0,0,0,3.45-10.593,24.978,24.978,0,0,0-1-9.784c-.162-.566-.809-1.132-.566-1.617.243-.458.943-.674,1.455-1,2.1-1.213,4.178-2.4,6.334-3.639a1.955,1.955,0,0,1-.162,1.024c-1.24,4.528-2.1,9.083-1.159,13.8a19.473,19.473,0,0,0,3.4,8.113c1.914,2.507,6.145,2.21,7.87-.081a37.175,37.175,0,0,0,3.854-7.035c.62-1.321,1.186-2.668,1.779-4.016a47.041,47.041,0,0,0-.054,4.771,9.219,9.219,0,0,0,1.105,4.447,3.226,3.226,0,0,0,4.474,1.24,9.926,9.926,0,0,0,3.935-4.1A189.843,189.843,0,0,0,86.951,79.188c.674-1.617,1.348-3.234,2.1-5.013.108.593.189.943.27,1.321a34.277,34.277,0,0,0,3.72,10.269,1.467,1.467,0,0,1-.135,1.833c-1.644,2.237-3.45,4.339-5.229,6.469a52.958,52.958,0,0,0-4.339,5.471c-1.132,1.779-.485,3.585,1.4,3.989a7.949,7.949,0,0,0,1.779.162,18.631,18.631,0,0,0,9.164-2.641c3.8-2.183,6.064-5.364,5.957-9.892a15.694,15.694,0,0,0-1.429-5.93.974.974,0,0,1,.081-1.105,109.211,109.211,0,0,0,7.116-11.832,9.7,9.7,0,0,1,1.267-2.21c.081.3.135.458.189.647a31.839,31.839,0,0,0,3.315,9.7c.485.836.243,1.24-.4,1.806a26.265,26.265,0,0,0-5.633,6.684A12.508,12.508,0,0,0,104.2,95.36a3.44,3.44,0,0,0,4.528,3.5,19.827,19.827,0,0,0,7.277-3.315c4.771-3.5,6.172-7.17,4.69-12.318-.593-2.021-.566-1.995,1.455-2.614a29.237,29.237,0,0,1,13.477-.647c.512.081,1.024.189,1.509.3.27-1.617.485-3.234.62-4.879C131.909,73.905,126.141,74.633,120.427,76.816ZM26.576,113.041a9.554,9.554,0,0,1-3.989.539,3.075,3.075,0,0,1-2.884-3.154,11.186,11.186,0,0,1,1.4-5.795c1.671-3.315,4.447-5.579,7.277-7.789a86.012,86.012,0,0,1,8.733-5.795c.916-.539.916-.539,1.132.539a16.539,16.539,0,0,1,.431,4.043C38.893,103.257,33.395,110.616,26.576,113.041ZM67.922,74.795A47.146,47.146,0,0,1,65.28,84.04c-1.509,4.1-2.992,8.221-4.905,12.183a9.7,9.7,0,0,1-1.59,2.561c-.674.7-1.267.62-1.725-.243-.889-1.671-.782-3.531-.943-4.879a28.209,28.209,0,0,1,6.064-17.3,7.6,7.6,0,0,1,4.151-2.965C67.545,73.07,68.111,73.555,67.922,74.795Zm26.225,20.08a12.745,12.745,0,0,1-5.418,4.986c-.243.108-.566.323-.782.054s.135-.458.27-.62c2.264-2.453,4.474-4.959,6.5-7.628.027-.054.108-.054.27-.108A6.022,6.022,0,0,1,94.147,94.875Zm15.579-.108c-.323.162-.728.458-1.051.189-.35-.27-.216-.782-.108-1.159a20.421,20.421,0,0,1,2.156-4.905,17.829,17.829,0,0,1,2.884-3.477c.431-.431.647-.377.782.243a8.787,8.787,0,0,1,.189,1.887C114.551,91.048,112.8,93.339,109.726,94.767Z" fill="#fff"/>
    </g>
  </g>
</svg>
