<svg xmlns="http://www.w3.org/2000/svg" viewBox="0 0 39.37 39.37"><defs><style>.cls-1{fill:#f5f5f5;}</style></defs><title>instagram</title><g id="Layer_2" data-name="Layer 2"><g id="Layer_1-2" data-name="Layer 1"><g id="Social_media" data-name="Social media"><g id="Group_6" data-name="Group 6"><path id="Path_4" data-name="Path 4" class="cls-1" d="M25.55,10.49H13.82a3.41,3.41,0,0,0-3.4,3.4V25.62a3.41,3.41,0,0,0,3.4,3.4H25.55a3.41,3.41,0,0,0,3.4-3.4V13.86a3.38,3.38,0,0,0-3.38-3.37ZM19.69,25.83a6.11,6.11,0,1,1,6.11-6.11h0A6.11,6.11,0,0,1,19.69,25.83ZM26,14.92a1.44,1.44,0,1,1,1.44-1.44h0A1.42,1.42,0,0,1,26,14.92h0Z"/><path id="Path_5" data-name="Path 5" class="cls-1" d="M19.69,16.21a3.51,3.51,0,1,0,3.51,3.51h0A3.52,3.52,0,0,0,19.69,16.21Z"/><path id="Path_6" data-name="Path 6" class="cls-1" d="M19.69,0A19.69,19.69,0,1,0,39.37,19.69,19.69,19.69,0,0,0,19.69,0ZM31.51,25.62a6,6,0,0,1-6,6H13.83a6,6,0,0,1-6-6h0V13.86a6,6,0,0,1,6-6H25.55a6,6,0,0,1,6,6h0Z"/></g></g></g></g></svg>