<svg xmlns="http://www.w3.org/2000/svg" viewBox="0 0 39.37 39.37"><defs><style>.cls-1{fill:#f5f5f5;}</style></defs><title>linkedin</title><g id="Layer_2" data-name="Layer 2"><g id="Layer_1-2" data-name="Layer 1"><g id="Social_media" data-name="Social media"><g id="Group_3" data-name="Group 3"><path id="Exclusion_3" data-name="Exclusion 3" class="cls-1" d="M19.69,39.37a19.69,19.69,0,1,1,13.92-5.77A19.69,19.69,0,0,1,19.69,39.37ZM17.13,15.27c.07,1.31,0,14,0,14.14h4.7v-7.9A3,3,0,0,1,22,20.35a2.62,2.62,0,0,1,2.42-1.72c1.56,0,2.39,1.1,2.39,3.19v7.55h4.7v-8.1c0-4-2-6.35-5.4-6.35a4.73,4.73,0,0,0-4.25,2.35v-2Zm-7.33,0V29.37h4.7V15.23Zm2.39-6.81a2.46,2.46,0,1,0-.41,4.91h.37a2.46,2.46,0,0,0,.4-4.91Z"/></g></g></g></g></svg>