<svg xmlns="http://www.w3.org/2000/svg" viewBox="0 0 39.37 39.37"><defs><style>.cls-1{fill:#f5f5f5;}</style></defs><title>twitter</title><g id="Layer_2" data-name="Layer 2"><g id="Layer_1-2" data-name="Layer 1"><g id="Social_media" data-name="Social media"><g id="Group_5" data-name="Group 5"><path id="Exclusion_2" data-name="Exclusion 2" class="cls-1" d="M19.69,39.37a19.69,19.69,0,1,1,13.92-5.77A19.69,19.69,0,0,1,19.69,39.37ZM8.85,28.5h0a13.33,13.33,0,0,0,7.23,2.1,12.85,12.85,0,0,0,10-4.36,13.87,13.87,0,0,0,3.45-9v-.6a10.89,10.89,0,0,0,2.28-2.46,8.79,8.79,0,0,1-2.7.74,4.75,4.75,0,0,0,2.07-2.6,9.86,9.86,0,0,1-3,1.16A4.72,4.72,0,0,0,20,16.67a5.42,5.42,0,0,0,.11,1.09,13.45,13.45,0,0,1-9.69-4.91,4.56,4.56,0,0,0-.63,2.35,4.72,4.72,0,0,0,2.11,3.93,4.9,4.9,0,0,1-2.14-.6v.07a4.69,4.69,0,0,0,3.79,4.6,4.73,4.73,0,0,1-1.23.17,6.57,6.57,0,0,1-.88-.07,4.76,4.76,0,0,0,4.39,3.26,9.41,9.41,0,0,1-5.86,2C9.58,28.57,9.18,28.53,8.85,28.5Z"/></g></g></g></g></svg>