<svg xmlns="http://www.w3.org/2000/svg" width="17.611" height="30.468" viewBox="0 0 17.611 30.468">
  <g id="arrow" transform="translate(-116.715 -188.334)">
    <g id="Group_7" data-name="Group 7" transform="translate(116.715 188.334)">
      <path id="Path_7" data-name="Path 7" d="M30.468,8.81a.924.924,0,0,0-.793-1.015H2.694L7.437,1.724A1.213,1.213,0,0,0,7.437.3.672.672,0,0,0,6.322.3l-6.09,7.8a1.213,1.213,0,0,0,0,1.427l6.09,7.8a.678.678,0,0,0,1.121,0,1.213,1.213,0,0,0,0-1.427L2.7,9.816H29.689A.916.916,0,0,0,30.468,8.81Z" transform="translate(0 30.468) rotate(-90)" fill="#fff"/>
    </g>
  </g>
</svg>
