<svg xmlns="http://www.w3.org/2000/svg" width="41.071" height="23.739" viewBox="0 0 41.071 23.739">
  <g id="arrow" transform="translate(0 23.739) rotate(-90)">
    <g id="Group_7" data-name="Group 7" transform="translate(0)">
      <path id="Path_7" data-name="Path 7" d="M41.071,11.875A1.245,1.245,0,0,0,40,10.508H3.631l6.393-8.184a1.635,1.635,0,0,0,0-1.924.905.905,0,0,0-1.5,0L.313,10.908a1.635,1.635,0,0,0,0,1.924L8.522,23.339a.914.914,0,0,0,1.512,0,1.635,1.635,0,0,0,0-1.924L3.64,13.232H40.02A1.234,1.234,0,0,0,41.071,11.875Z" transform="translate(0 41.071) rotate(-90)" fill="#fff"/>
    </g>
  </g>
</svg>
