<svg xmlns="http://www.w3.org/2000/svg" xmlns:xlink="http://www.w3.org/1999/xlink" viewBox="0 0 211.2 88"><defs><style>.cls-1{isolation:isolate;}.cls-2{fill:#fff;}.cls-3{fill:url(#linear-gradient);}.cls-4{fill:url(#linear-gradient-2);}.cls-5{fill:url(#linear-gradient-3);}.cls-6{fill:url(#linear-gradient-4);}.cls-7{fill:url(#linear-gradient-5);}.cls-8{fill:url(#linear-gradient-6);}.cls-9{fill:url(#linear-gradient-7);}.cls-10{fill:url(#linear-gradient-8);}.cls-11{fill:url(#linear-gradient-9);}.cls-12{fill:url(#linear-gradient-10);}.cls-13{fill:url(#linear-gradient-11);}.cls-14{fill:url(#linear-gradient-12);}.cls-15{fill:url(#linear-gradient-13);}.cls-16{fill:url(#linear-gradient-14);}.cls-17{fill:url(#linear-gradient-15);}.cls-18{fill:url(#linear-gradient-16);}.cls-19{fill:url(#linear-gradient-17);}.cls-20{fill:url(#linear-gradient-18);}.cls-21{fill:url(#linear-gradient-19);}.cls-22{fill:url(#linear-gradient-20);}.cls-23{fill:url(#linear-gradient-21);}.cls-24{fill:url(#linear-gradient-22);}.cls-25{fill:url(#linear-gradient-23);}.cls-26{fill:url(#linear-gradient-24);}.cls-27{fill:url(#linear-gradient-25);}.cls-28{fill:url(#linear-gradient-26);}.cls-29{fill:url(#linear-gradient-27);}.cls-30{fill:url(#linear-gradient-28);}.cls-31{fill:url(#linear-gradient-29);}.cls-32{fill:url(#linear-gradient-30);}</style><linearGradient id="linear-gradient" x1="27.86" y1="-568.88" x2="39.03" y2="-686.42" gradientTransform="matrix(1, 0, 0, -1, 0, -590)" gradientUnits="userSpaceOnUse"><stop offset="0.04" stop-color="#883bff"/><stop offset="0.5" stop-color="aqua"/><stop offset="0.96" stop-color="#fff"/></linearGradient><linearGradient id="linear-gradient-2" x1="14.28" y1="-437.86" x2="39.15" y2="-699.73" xlink:href="#linear-gradient"/><linearGradient id="linear-gradient-3" x1="31.63" y1="-567.47" x2="42.8" y2="-685.01" xlink:href="#linear-gradient"/><linearGradient id="linear-gradient-4" x1="20.27" y1="-571.21" x2="31.44" y2="-688.75" xlink:href="#linear-gradient"/><linearGradient id="linear-gradient-5" x1="13.17" y1="-571.13" x2="24.34" y2="-688.68" xlink:href="#linear-gradient"/><linearGradient id="linear-gradient-6" x1="5.78" y1="-570.99" x2="16.94" y2="-688.53" xlink:href="#linear-gradient"/><linearGradient id="linear-gradient-7" x1="16.62" y1="-568.46" x2="27.78" y2="-686" xlink:href="#linear-gradient"/><linearGradient id="linear-gradient-8" x1="27.43" y1="-565.69" x2="38.6" y2="-683.23" xlink:href="#linear-gradient"/><linearGradient id="linear-gradient-9" x1="41.88" y1="-594.29" x2="50.13" y2="-681.16" xlink:href="#linear-gradient"/><linearGradient id="linear-gradient-10" x1="26.55" y1="-594.31" x2="34.48" y2="-677.78" xlink:href="#linear-gradient"/><linearGradient id="linear-gradient-11" x1="8.68" y1="-587.9" x2="18.39" y2="-690.05" xlink:href="#linear-gradient"/><linearGradient id="linear-gradient-12" x1="24.01" y1="-576.52" x2="34.84" y2="-690.46" xlink:href="#linear-gradient"/><linearGradient id="linear-gradient-13" x1="41.32" y1="-577.6" x2="53.01" y2="-700.63" xlink:href="#linear-gradient"/><linearGradient id="linear-gradient-14" x1="24.71" y1="-571.8" x2="40.05" y2="-733.24" xlink:href="#linear-gradient"/><linearGradient id="linear-gradient-15" x1="4.25" y1="-559.85" x2="24.34" y2="-771.34" xlink:href="#linear-gradient"/><linearGradient id="linear-gradient-16" x1="28.86" y1="-567.88" x2="40.03" y2="-685.42" xlink:href="#linear-gradient"/><linearGradient id="linear-gradient-17" x1="15.28" y1="-436.86" x2="40.15" y2="-698.73" xlink:href="#linear-gradient"/><linearGradient id="linear-gradient-18" x1="32.63" y1="-566.47" x2="43.8" y2="-684.01" xlink:href="#linear-gradient"/><linearGradient id="linear-gradient-19" x1="21.27" y1="-570.21" x2="32.44" y2="-687.75" xlink:href="#linear-gradient"/><linearGradient id="linear-gradient-20" x1="14.17" y1="-570.13" x2="25.34" y2="-687.68" xlink:href="#linear-gradient"/><linearGradient id="linear-gradient-21" x1="6.78" y1="-569.99" x2="17.94" y2="-687.53" xlink:href="#linear-gradient"/><linearGradient id="linear-gradient-22" x1="17.62" y1="-567.46" x2="28.78" y2="-685" xlink:href="#linear-gradient"/><linearGradient id="linear-gradient-23" x1="28.43" y1="-564.69" x2="39.6" y2="-682.23" xlink:href="#linear-gradient"/><linearGradient id="linear-gradient-24" x1="42.88" y1="-593.29" x2="51.13" y2="-680.16" xlink:href="#linear-gradient"/><linearGradient id="linear-gradient-25" x1="27.55" y1="-593.31" x2="35.48" y2="-676.78" xlink:href="#linear-gradient"/><linearGradient id="linear-gradient-26" x1="9.68" y1="-586.9" x2="19.39" y2="-689.05" xlink:href="#linear-gradient"/><linearGradient id="linear-gradient-27" x1="25.01" y1="-575.52" x2="35.84" y2="-689.46" xlink:href="#linear-gradient"/><linearGradient id="linear-gradient-28" x1="42.32" y1="-576.6" x2="54.01" y2="-699.63" xlink:href="#linear-gradient"/><linearGradient id="linear-gradient-29" x1="25.71" y1="-570.8" x2="41.05" y2="-732.24" xlink:href="#linear-gradient"/><linearGradient id="linear-gradient-30" x1="5.25" y1="-558.85" x2="25.34" y2="-770.34" xlink:href="#linear-gradient"/></defs><title>logo_v2</title><g id="Layer_2" data-name="Layer 2"><g id="logo_v2_expanded"><g id="digital_lights"><g id="digital_lights-2" data-name="digital_lights" class="cls-1"><path id="d" class="cls-2" d="M79.16,36.44H85a8.49,8.49,0,0,1,3.91.87,6.41,6.41,0,0,1,2.65,2.45,7.44,7.44,0,0,1,0,7.24,6.41,6.41,0,0,1-2.65,2.45,8.49,8.49,0,0,1-3.91.87H79.16Zm5.73,12.15a6.4,6.4,0,0,0,3-.65,4.78,4.78,0,0,0,2-1.83,5.75,5.75,0,0,0,0-5.46,4.72,4.72,0,0,0-2-1.83,6.4,6.4,0,0,0-3-.66H81.15V48.59Z"/><path id="i" class="cls-2" d="M95.29,37.43a1.24,1.24,0,0,1,0-1.75,1.24,1.24,0,0,1,.93-.37,1.28,1.28,0,0,1,.92.35,1.13,1.13,0,0,1,.36.86,1.22,1.22,0,0,1-.36.9,1.25,1.25,0,0,1-.92.37A1.27,1.27,0,0,1,95.29,37.43Zm0,2.38h1.91V50.32H95.26Z"/><path id="g" class="cls-2" d="M110.85,39.81v9.08A5.45,5.45,0,0,1,109.48,53a5.66,5.66,0,0,1-4.08,1.32,9.8,9.8,0,0,1-2.84-.41,5.58,5.58,0,0,1-2.18-1.16l.91-1.47a5.34,5.34,0,0,0,1.81,1,6.83,6.83,0,0,0,2.24.37,3.73,3.73,0,0,0,2.72-.87,3.59,3.59,0,0,0,.88-2.66v-.83a4.17,4.17,0,0,1-1.65,1.22,5.57,5.57,0,0,1-2.13.4,5.73,5.73,0,0,1-2.73-.64,4.76,4.76,0,0,1-1.91-1.81,5.35,5.35,0,0,1,0-5.29,4.71,4.71,0,0,1,1.91-1.79,5.73,5.73,0,0,1,2.73-.64,5.59,5.59,0,0,1,2.21.44A4,4,0,0,1,109,41.44V39.81Zm-3.62,8a3.23,3.23,0,0,0,1.29-1.22,3.39,3.39,0,0,0,.46-1.77,3.2,3.2,0,0,0-1-2.47,4.08,4.08,0,0,0-5.21,0,3.2,3.2,0,0,0-1,2.47,3.39,3.39,0,0,0,.46,1.77,3.23,3.23,0,0,0,1.29,1.22,4.17,4.17,0,0,0,3.73,0Z"/><path id="i-2" data-name="i" class="cls-2" d="M114.51,37.43a1.22,1.22,0,0,1,0-1.75,1.22,1.22,0,0,1,.92-.37,1.24,1.24,0,0,1,.92.35,1.11,1.11,0,0,1,.37.86,1.19,1.19,0,0,1-.37.9,1.22,1.22,0,0,1-.92.37A1.25,1.25,0,0,1,114.51,37.43Zm0,2.38h1.9V50.32h-1.9Z"/><path id="t" class="cls-2" d="M125.92,49.71a3,3,0,0,1-1,.54,4.2,4.2,0,0,1-1.27.19,3.4,3.4,0,0,1-2.46-.85,3.28,3.28,0,0,1-.87-2.44V41.38H118.5V39.81h1.79v-2.3h1.9v2.3h3v1.57h-3v5.69a1.83,1.83,0,0,0,.43,1.31,1.59,1.59,0,0,0,1.22.45,2.28,2.28,0,0,0,1.48-.49Z"/><path id="a" class="cls-2" d="M135.39,40.78A4.16,4.16,0,0,1,136.55,44v6.35h-1.81V48.93a3,3,0,0,1-1.36,1.12,5.13,5.13,0,0,1-2.09.39,4.39,4.39,0,0,1-2.82-.85,2.92,2.92,0,0,1-.05-4.48,5,5,0,0,1,3.21-.84h3v-.38a2.46,2.46,0,0,0-.71-1.88,3.05,3.05,0,0,0-2.1-.65,5.75,5.75,0,0,0-1.83.3,4.71,4.71,0,0,0-1.5.83l-.8-1.43a5.62,5.62,0,0,1,2-1,8.13,8.13,0,0,1,2.39-.35A4.8,4.8,0,0,1,135.39,40.78Zm-1.9,7.71a2.84,2.84,0,0,0,1.15-1.38V45.64h-2.93c-1.62,0-2.42.54-2.42,1.63a1.46,1.46,0,0,0,.61,1.24,2.78,2.78,0,0,0,1.71.46A3.58,3.58,0,0,0,133.49,48.49Z"/><path id="l" class="cls-2" d="M140.08,35.61H142V50.32h-1.9Z"/><path id="l-2" data-name="l" class="cls-2" d="M151.22,36.44h2V48.59h7.52v1.73h-9.5Z"/><path id="i-3" data-name="i" class="cls-2" d="M162.75,37.43a1.22,1.22,0,0,1,0-1.75,1.22,1.22,0,0,1,.92-.37,1.24,1.24,0,0,1,.92.35,1.11,1.11,0,0,1,.37.86,1.19,1.19,0,0,1-.37.9,1.22,1.22,0,0,1-.92.37A1.25,1.25,0,0,1,162.75,37.43Zm0,2.38h1.9V50.32h-1.9Z"/><path id="g-2" data-name="g" class="cls-2" d="M178.3,39.81v9.08A5.45,5.45,0,0,1,176.94,53a5.7,5.7,0,0,1-4.09,1.32,9.78,9.78,0,0,1-2.83-.41,5.7,5.7,0,0,1-2.19-1.16l.92-1.47a5.34,5.34,0,0,0,1.81,1,6.78,6.78,0,0,0,2.23.37,3.76,3.76,0,0,0,2.73-.87,3.59,3.59,0,0,0,.88-2.66v-.83a4.24,4.24,0,0,1-1.65,1.22,5.58,5.58,0,0,1-2.14.4,5.72,5.72,0,0,1-2.72-.64A4.78,4.78,0,0,1,168,47.43a5.41,5.41,0,0,1,0-5.29,4.74,4.74,0,0,1,1.92-1.79,5.72,5.72,0,0,1,2.72-.64,5.55,5.55,0,0,1,2.21.44,4.13,4.13,0,0,1,1.68,1.29V39.81Zm-3.61,8A3.27,3.27,0,0,0,176,46.56a3.3,3.3,0,0,0,.47-1.77,3.23,3.23,0,0,0-1-2.47,4.09,4.09,0,0,0-5.22,0,3.23,3.23,0,0,0-1,2.47,3.39,3.39,0,0,0,.47,1.77A3.23,3.23,0,0,0,171,47.78a4.17,4.17,0,0,0,3.73,0Z"/><path id="h" class="cls-2" d="M190.73,40.87a4.59,4.59,0,0,1,1.18,3.4v6H190V44.49a3.22,3.22,0,0,0-.73-2.3,2.74,2.74,0,0,0-2.1-.77,3.28,3.28,0,0,0-2.44.9,3.5,3.5,0,0,0-.89,2.59v5.41h-1.91V35.61h1.91V41.3a3.82,3.82,0,0,1,1.55-1.17,5.32,5.32,0,0,1,2.15-.42A4.37,4.37,0,0,1,190.73,40.87Z"/><path id="t-2" data-name="t" class="cls-2" d="M201.35,49.71a3.1,3.1,0,0,1-1,.54,4.16,4.16,0,0,1-1.27.19,3.39,3.39,0,0,1-2.45-.85,3.24,3.24,0,0,1-.88-2.44V41.38h-1.78V39.81h1.78v-2.3h1.91v2.3h3v1.57h-3v5.69a1.87,1.87,0,0,0,.42,1.31,1.61,1.61,0,0,0,1.22.45,2.3,2.3,0,0,0,1.49-.49Z"/><path id="s" class="cls-2" d="M204.18,50.09a5.37,5.37,0,0,1-1.86-.88l.79-1.51a5.7,5.7,0,0,0,1.68.8,7.29,7.29,0,0,0,2,.29c1.66,0,2.5-.47,2.5-1.42a1,1,0,0,0-.34-.76,2.19,2.19,0,0,0-.84-.4c-.34-.09-.82-.19-1.44-.29a13.68,13.68,0,0,1-2.07-.46,3.13,3.13,0,0,1-1.38-.87,2.41,2.41,0,0,1-.58-1.73,2.71,2.71,0,0,1,1.19-2.29,5.39,5.39,0,0,1,3.2-.86,8.88,8.88,0,0,1,2.1.26,5.61,5.61,0,0,1,1.72.69l-.81,1.51a5.42,5.42,0,0,0-3-.83,3.56,3.56,0,0,0-1.85.39,1.21,1.21,0,0,0-.63,1.05,1,1,0,0,0,.35.82,2.24,2.24,0,0,0,.89.43c.35.1.84.2,1.47.32a16.23,16.23,0,0,1,2.06.47,3,3,0,0,1,1.33.84,2.36,2.36,0,0,1,.56,1.67A2.65,2.65,0,0,1,210,49.6a5.77,5.77,0,0,1-3.32.84A8.85,8.85,0,0,1,204.18,50.09Z"/></g></g><g id="double_pattern"><g id="pattern"><rect id="square15" class="cls-3" x="37.9" y="87.4" width="0.6" height="0.6"/><rect id="square14" class="cls-4" x="35.9" y="82.2" width="1.4" height="1.3"/><rect id="square13" class="cls-5" x="41.5" y="84.2" width="0.6" height="0.6"/><rect id="square12" class="cls-6" x="28.8" y="79.6" width="1.8" height="1.7"/><rect id="square11" class="cls-7" x="21.1" y="76.6" width="2.5" height="2.3"/><rect id="square10" class="cls-8" x="13.3" y="72.2" width="2.5" height="2.3"/><rect id="square9" class="cls-9" x="24" y="68.2" width="2.5" height="2.3"/><rect id="square8" class="cls-10" x="34.7" y="64.2" width="2.5" height="2.3"/><rect id="square7" class="cls-11" x="45.4" y="60.1" width="3.9" height="3.6"/><rect id="square6" class="cls-12" x="28.1" y="52.5" width="6.6" height="5.7"/><rect id="square5" class="cls-13" x="9.7" y="45.1" width="7.6" height="7"/><rect id="square4" class="cls-14" x="24.9" y="36.7" width="8.5" height="7.8"/><rect id="square3" class="cls-15" x="40.9" y="27.4" width="9.2" height="8.4"/><rect id="square2" class="cls-16" x="22.3" y="14.6" width="12.1" height="11"/><rect id="square1" class="cls-17" y="1" width="15.8" height="14.5"/></g><g id="pattern-2" data-name="pattern"><rect id="square15-2" data-name="square15" class="cls-18" x="38.9" y="86.4" width="0.6" height="0.6"/><rect id="square14-2" data-name="square14" class="cls-19" x="36.9" y="81.2" width="1.4" height="1.3"/><rect id="square13-2" data-name="square13" class="cls-20" x="42.5" y="83.2" width="0.6" height="0.6"/><rect id="square12-2" data-name="square12" class="cls-21" x="29.8" y="78.6" width="1.8" height="1.7"/><rect id="square11-2" data-name="square11" class="cls-22" x="22.1" y="75.6" width="2.5" height="2.3"/><rect id="square10-2" data-name="square10" class="cls-23" x="14.3" y="71.2" width="2.5" height="2.3"/><rect id="square9-2" data-name="square9" class="cls-24" x="25" y="67.2" width="2.5" height="2.3"/><rect id="square8-2" data-name="square8" class="cls-25" x="35.7" y="63.2" width="2.5" height="2.3"/><rect id="square7-2" data-name="square7" class="cls-26" x="46.4" y="59.1" width="3.9" height="3.6"/><rect id="square6-2" data-name="square6" class="cls-27" x="29.1" y="51.5" width="6.6" height="5.7"/><rect id="square5-2" data-name="square5" class="cls-28" x="10.7" y="44.1" width="7.6" height="7"/><rect id="square4-2" data-name="square4" class="cls-29" x="25.9" y="35.7" width="8.5" height="7.8"/><rect id="square3-2" data-name="square3" class="cls-30" x="41.9" y="26.4" width="9.2" height="8.4"/><rect id="square2-2" data-name="square2" class="cls-31" x="23.3" y="13.6" width="12.1" height="11"/><rect id="square1-2" data-name="square1" class="cls-32" x="1" width="15.8" height="14.5"/></g></g></g></g></svg>