<svg id="Layer_1" data-name="Layer 1" xmlns="http://www.w3.org/2000/svg" xmlns:xlink="http://www.w3.org/1999/xlink" viewBox="0 0 190.92 94.93"><defs><style>.cls-1{isolation:isolate;}.cls-2{fill:#fff;}.cls-3{fill:url(#linear-gradient);}.cls-4{fill:url(#linear-gradient-2);}.cls-5{fill:url(#linear-gradient-3);}.cls-6{fill:url(#linear-gradient-4);}.cls-7{fill:url(#linear-gradient-5);}.cls-8{fill:url(#linear-gradient-6);}.cls-9{fill:url(#linear-gradient-7);}.cls-10{fill:url(#linear-gradient-8);}.cls-11{fill:url(#linear-gradient-9);}.cls-12{fill:url(#linear-gradient-10);}.cls-13{fill:url(#linear-gradient-11);}.cls-14{fill:url(#linear-gradient-12);}.cls-15{fill:url(#linear-gradient-13);}.cls-16{fill:url(#linear-gradient-14);}.cls-17{fill:url(#linear-gradient-15);}</style><linearGradient id="linear-gradient" x1="31.64" y1="128.7" x2="43.72" y2="1.49" gradientTransform="matrix(1, 0, 0, -1, -3.6, 105.52)" gradientUnits="userSpaceOnUse"><stop offset="0.04" stop-color="#883bff"/><stop offset="0.5" stop-color="aqua"/><stop offset="0.96" stop-color="#fff"/></linearGradient><linearGradient id="linear-gradient-2" x1="17.36" y1="270.54" x2="44.28" y2="-12.88" xlink:href="#linear-gradient"/><linearGradient id="linear-gradient-3" x1="36.05" y1="129.62" x2="48.13" y2="2.4" xlink:href="#linear-gradient"/><linearGradient id="linear-gradient-4" x1="23.67" y1="126.24" x2="35.75" y2="-0.97" xlink:href="#linear-gradient"/><linearGradient id="linear-gradient-5" x1="16.33" y1="126.34" x2="28.41" y2="-0.87" xlink:href="#linear-gradient"/><linearGradient id="linear-gradient-6" x1="8.63" y1="126.54" x2="20.72" y2="-0.68" xlink:href="#linear-gradient"/><linearGradient id="linear-gradient-7" x1="20.05" y1="129.32" x2="32.14" y2="2.11" xlink:href="#linear-gradient"/><linearGradient id="linear-gradient-8" x1="31.29" y1="132.35" x2="43.38" y2="5.14" xlink:href="#linear-gradient"/><linearGradient id="linear-gradient-9" x1="45.06" y1="101.42" x2="53.99" y2="7.41" xlink:href="#linear-gradient"/><linearGradient id="linear-gradient-10" x1="29.76" y1="104.29" x2="38.81" y2="9" xlink:href="#linear-gradient"/><linearGradient id="linear-gradient-11" x1="11.92" y1="108.45" x2="22.42" y2="-2.1" xlink:href="#linear-gradient"/><linearGradient id="linear-gradient-12" x1="27.84" y1="120.83" x2="39.55" y2="-2.48" xlink:href="#linear-gradient"/><linearGradient id="linear-gradient-13" x1="44.53" y1="119.73" x2="57.18" y2="-13.42" xlink:href="#linear-gradient"/><linearGradient id="linear-gradient-14" x1="27.15" y1="126.11" x2="43.74" y2="-48.6" xlink:href="#linear-gradient"/><linearGradient id="linear-gradient-15" x1="7.55" y1="139.15" x2="29.29" y2="-89.74" xlink:href="#linear-gradient"/></defs><title>logo_bootcamp</title><g id="Name"><g class="cls-1"><path class="cls-2" d="M62.87,45.88h5.85a8.37,8.37,0,0,1,3.91.88,6.32,6.32,0,0,1,2.64,2.45,7.42,7.42,0,0,1,0,7.23,6.38,6.38,0,0,1-2.64,2.45,8.49,8.49,0,0,1-3.91.87H62.87ZM68.6,58a6.43,6.43,0,0,0,3-.66,4.65,4.65,0,0,0,2-1.83,5.33,5.33,0,0,0,.69-2.73,5.26,5.26,0,0,0-.69-2.72,4.74,4.74,0,0,0-2-1.84,6.56,6.56,0,0,0-3-.65H64.85V58Z" transform="translate(-3.6 -6.48)"/><path class="cls-2" d="M79,46.88a1.2,1.2,0,0,1-.37-.88,1.23,1.23,0,0,1,.37-.88,1.28,1.28,0,0,1,.92-.37,1.33,1.33,0,0,1,.93.35,1.15,1.15,0,0,1,.36.86,1.26,1.26,0,0,1-.36.91,1.38,1.38,0,0,1-1.85,0Zm0,2.37h1.91V59.76H79Z" transform="translate(-3.6 -6.48)"/><path class="cls-2" d="M94.56,49.25v9.09a5.44,5.44,0,0,1-1.37,4.07,5.68,5.68,0,0,1-4.09,1.32,9.78,9.78,0,0,1-2.83-.41,5.45,5.45,0,0,1-2.18-1.16L85,60.7a5.52,5.52,0,0,0,1.81,1,7,7,0,0,0,2.23.36,3.76,3.76,0,0,0,2.73-.87,3.59,3.59,0,0,0,.88-2.66V57.7A4.24,4.24,0,0,1,91,58.92a5.57,5.57,0,0,1-2.13.41,5.73,5.73,0,0,1-2.73-.65,4.8,4.8,0,0,1-1.91-1.8,5.37,5.37,0,0,1,0-5.3,4.71,4.71,0,0,1,1.91-1.79,5.84,5.84,0,0,1,2.73-.63,5.58,5.58,0,0,1,2.21.43,4,4,0,0,1,1.67,1.29V49.25Zm-3.62,8A3.3,3.3,0,0,0,92.23,56a3.45,3.45,0,0,0,.46-1.78,3.2,3.2,0,0,0-1-2.47,4.08,4.08,0,0,0-5.21,0,3.2,3.2,0,0,0-1,2.47A3.45,3.45,0,0,0,85.92,56a3.3,3.3,0,0,0,1.29,1.22,4.26,4.26,0,0,0,3.73,0Z" transform="translate(-3.6 -6.48)"/><path class="cls-2" d="M98.21,46.88a1.19,1.19,0,0,1-.36-.88,1.22,1.22,0,0,1,.36-.88,1.37,1.37,0,0,1,1.85,0,1.16,1.16,0,0,1,.37.86,1.25,1.25,0,0,1-1.29,1.27A1.33,1.33,0,0,1,98.21,46.88Zm0,2.37h1.91V59.76H98.18Z" transform="translate(-3.6 -6.48)"/><path class="cls-2" d="M109.63,59.15a2.78,2.78,0,0,1-1,.54,4.09,4.09,0,0,1-1.26.19,3.36,3.36,0,0,1-2.46-.85,3.27,3.27,0,0,1-.88-2.44V50.82h-1.78V49.25H104V47h1.91v2.3h3v1.57h-3v5.69a1.86,1.86,0,0,0,.42,1.31,1.63,1.63,0,0,0,1.22.46,2.31,2.31,0,0,0,1.49-.5Z" transform="translate(-3.6 -6.48)"/><path class="cls-2" d="M119.09,50.23a4.09,4.09,0,0,1,1.16,3.19v6.34h-1.8V58.38a3,3,0,0,1-1.36,1.12,5.34,5.34,0,0,1-2.09.38,4.38,4.38,0,0,1-2.83-.85,2.93,2.93,0,0,1,0-4.47,5,5,0,0,1,3.22-.84h3v-.38a2.43,2.43,0,0,0-.71-1.88,3,3,0,0,0-2.11-.66,5.4,5.4,0,0,0-1.82.31,4.74,4.74,0,0,0-1.51.82l-.79-1.43a5.84,5.84,0,0,1,1.94-1,8.24,8.24,0,0,1,2.4-.34A4.71,4.71,0,0,1,119.09,50.23Zm-1.89,7.7a2.75,2.75,0,0,0,1.15-1.38V55.08h-2.93c-1.62,0-2.42.55-2.42,1.63a1.46,1.46,0,0,0,.61,1.25,2.85,2.85,0,0,0,1.71.46A3.58,3.58,0,0,0,117.2,57.93Z" transform="translate(-3.6 -6.48)"/><path class="cls-2" d="M123.78,45.05h1.91V59.76h-1.91Z" transform="translate(-3.6 -6.48)"/></g><g class="cls-1"><path class="cls-2" d="M134.54,45.88h2V58H144v1.72h-9.5Z" transform="translate(-3.6 -6.48)"/><path class="cls-2" d="M146.07,46.88a1.2,1.2,0,0,1-.37-.88,1.23,1.23,0,0,1,.37-.88,1.26,1.26,0,0,1,.92-.37,1.28,1.28,0,0,1,.92.35,1.12,1.12,0,0,1,.37.86,1.23,1.23,0,0,1-.37.91,1.25,1.25,0,0,1-.92.36A1.28,1.28,0,0,1,146.07,46.88Zm0,2.37h1.9V59.76H146Z" transform="translate(-3.6 -6.48)"/><path class="cls-2" d="M161.62,49.25v9.09a5.44,5.44,0,0,1-1.36,4.07,5.7,5.7,0,0,1-4.09,1.32,9.78,9.78,0,0,1-2.83-.41,5.45,5.45,0,0,1-2.18-1.16l.91-1.46a5.52,5.52,0,0,0,1.81,1,7,7,0,0,0,2.23.36,3.76,3.76,0,0,0,2.73-.87,3.59,3.59,0,0,0,.88-2.66V57.7a4.24,4.24,0,0,1-1.65,1.22,5.59,5.59,0,0,1-2.14.41,5.72,5.72,0,0,1-2.72-.65,4.89,4.89,0,0,1-1.92-1.8,5.43,5.43,0,0,1,0-5.3,4.8,4.8,0,0,1,1.92-1.79,5.83,5.83,0,0,1,2.72-.63,5.63,5.63,0,0,1,2.22.43,4.1,4.1,0,0,1,1.67,1.29V49.25Zm-3.61,8a3.27,3.27,0,0,0,1.75-3,3.23,3.23,0,0,0-1-2.47,4.08,4.08,0,0,0-5.21,0,3.21,3.21,0,0,0-1,2.47A3.45,3.45,0,0,0,153,56a3.3,3.3,0,0,0,1.29,1.22,4.26,4.26,0,0,0,3.73,0Z" transform="translate(-3.6 -6.48)"/><path class="cls-2" d="M174.05,50.32a4.57,4.57,0,0,1,1.18,3.4v6h-1.91V53.93a3.24,3.24,0,0,0-.73-2.3,2.78,2.78,0,0,0-2.1-.77,3.28,3.28,0,0,0-2.44.9,3.55,3.55,0,0,0-.89,2.59v5.41h-1.91V45.05h1.91v5.69a3.91,3.91,0,0,1,1.55-1.17,5.37,5.37,0,0,1,2.16-.41A4.32,4.32,0,0,1,174.05,50.32Z" transform="translate(-3.6 -6.48)"/><path class="cls-2" d="M184.67,59.15a2.78,2.78,0,0,1-1,.54,4.09,4.09,0,0,1-1.26.19,3.36,3.36,0,0,1-2.46-.85,3.26,3.26,0,0,1-.87-2.44V50.82h-1.79V49.25H179V47h1.9v2.3h3v1.57h-3v5.69a1.82,1.82,0,0,0,.43,1.31,1.59,1.59,0,0,0,1.21.46,2.29,2.29,0,0,0,1.49-.5Z" transform="translate(-3.6 -6.48)"/><path class="cls-2" d="M187.5,59.54a5.56,5.56,0,0,1-1.86-.89l.79-1.5a5.75,5.75,0,0,0,1.69.79,6.83,6.83,0,0,0,2,.3c1.66,0,2.5-.48,2.5-1.43a.92.92,0,0,0-.34-.75,2.2,2.2,0,0,0-.84-.41c-.34-.09-.82-.18-1.44-.29a13.83,13.83,0,0,1-2.07-.45,3.24,3.24,0,0,1-1.38-.88,2.43,2.43,0,0,1-.58-1.72A2.7,2.7,0,0,1,187.16,50a5.32,5.32,0,0,1,3.2-.86,8.86,8.86,0,0,1,2.1.25,5.6,5.6,0,0,1,1.72.7l-.81,1.5a5.5,5.5,0,0,0-3-.83,3.48,3.48,0,0,0-1.85.4,1.19,1.19,0,0,0-.63,1,1,1,0,0,0,.35.81,2.25,2.25,0,0,0,.89.44c.35.09.84.2,1.47.31a18.18,18.18,0,0,1,2.06.47,3.15,3.15,0,0,1,1.33.84,2.37,2.37,0,0,1,.56,1.67A2.63,2.63,0,0,1,193.3,59a5.77,5.77,0,0,1-3.32.84A8.84,8.84,0,0,1,187.5,59.54Z" transform="translate(-3.6 -6.48)"/></g></g><g id="Pattern"><rect class="cls-3" x="38.91" y="94.29" width="0.64" height="0.64"/><rect class="cls-4" x="37.2" y="88.62" width="1.44" height="1.44"/><rect class="cls-5" x="43.13" y="91.39" width="0.64" height="0.64"/><rect class="cls-6" x="29.35" y="85.74" width="1.84" height="1.84"/><rect class="cls-7" x="21.41" y="82.56" width="2.52" height="2.52"/><rect class="cls-8" x="13.27" y="77.72" width="2.52" height="2.52"/><rect class="cls-9" x="24.54" y="73.36" width="2.52" height="2.52"/><rect class="cls-10" x="35.65" y="68.95" width="2.52" height="2.52"/><rect class="cls-11" x="45.45" y="64.53" width="3.86" height="3.86"/><rect class="cls-12" x="28.41" y="56.2" width="6.57" height="6.57"/><rect class="cls-13" x="9.72" y="48.08" width="7.62" height="7.62"/><rect class="cls-14" x="25.54" y="38.88" width="8.5" height="8.5"/><rect class="cls-15" x="40.86" y="28.8" width="9.18" height="9.18"/><rect class="cls-16" x="21.46" y="14.87" width="12.05" height="12.05"/><rect class="cls-17" width="15.78" height="15.78"/></g></svg>