<svg xmlns="http://www.w3.org/2000/svg" width="247.227" height="247.227" viewBox="0 0 247.227 247.227">
  <g id="play-button" transform="translate(1 1)">
    <path id="Path_8" data-name="Path 8" d="M118.3,76.016,28.388,14.71A4.085,4.085,0,0,0,22,18.086V140.7a4.085,4.085,0,0,0,6.388,3.376L118.3,82.768a4.084,4.084,0,0,0,0-6.752Zm-88.13,56.946V25.822l78.575,53.57Z" transform="translate(67.916 43.221)" fill="#fff" stroke="rgba(255,255,255,0.71)" stroke-width="2"/>
    <path id="Path_9" data-name="Path 9" d="M122.613,0A122.613,122.613,0,1,0,245.227,122.613,122.752,122.752,0,0,0,122.613,0Zm0,237.052A114.439,114.439,0,1,1,237.052,122.613,114.57,114.57,0,0,1,122.613,237.052Z" fill="#fff" stroke="rgba(255,255,255,0.71)" stroke-width="2"/>
  </g>
</svg>
