<svg xmlns="http://www.w3.org/2000/svg" width="219.374" height="39.375" viewBox="0 0 219.374 39.375">
  <g id="Social_media" transform="translate(-1367 -983.929)">
    <g id="Group_1" data-name="Group 1" transform="translate(1487 983.929)">
      <path id="Exclusion_1" data-name="Exclusion 1" d="M19.687,39.374A19.687,19.687,0,0,1,5.766,5.766,19.687,19.687,0,0,1,33.608,33.608,19.558,19.558,0,0,1,19.687,39.374ZM13.265,15.932v4.527h2.527V33.339h5.334V20.459h3.51l.42-4.527H21.091V13.265a1.091,1.091,0,0,1,1.123-1.227h2.878V7.65H21.161a5.039,5.039,0,0,0-4.329,1.9,5.986,5.986,0,0,0-1.04,3.475v2.913Z" transform="translate(0 0)" fill="rgba(255,255,255,0.6)"/>
    </g>
    <g id="Group_3" data-name="Group 3" transform="translate(1367 983.929)">
      <path id="Exclusion_3" data-name="Exclusion 3" d="M19.687,39.374A19.687,19.687,0,0,1,5.766,5.766,19.687,19.687,0,0,1,33.608,33.608,19.558,19.558,0,0,1,19.687,39.374ZM17.125,15.266c.07,1.309,0,14.013,0,14.141h4.7v-7.9a3.016,3.016,0,0,1,.141-1.158,2.618,2.618,0,0,1,2.421-1.72c1.561,0,2.387,1.1,2.387,3.194v7.545h4.7V21.266c0-3.978-2.02-6.353-5.4-6.353a4.731,4.731,0,0,0-4.247,2.352v-2ZM9.791,15.23V29.372h4.7V15.23Zm2.385-6.808a2.463,2.463,0,1,0-.07,4.914h.035a2.464,2.464,0,1,0,.035-4.914Z" transform="translate(0 0)" fill="rgba(255,255,255,0.6)"/>
    </g>
    <g id="Group_5" data-name="Group 5" transform="translate(1427 983.929)">
      <path id="Exclusion_2" data-name="Exclusion 2" d="M19.687,39.374A19.687,19.687,0,0,1,5.766,5.766,19.687,19.687,0,0,1,33.608,33.608,19.558,19.558,0,0,1,19.687,39.374ZM8.845,28.5v0a13.33,13.33,0,0,0,7.229,2.1,12.846,12.846,0,0,0,9.953-4.361A13.868,13.868,0,0,0,29.478,17.2v-.6a10.887,10.887,0,0,0,2.281-2.456,8.788,8.788,0,0,1-2.7.736,4.751,4.751,0,0,0,2.071-2.6,9.859,9.859,0,0,1-2.982,1.158A4.717,4.717,0,0,0,20,16.669a5.419,5.419,0,0,0,.106,1.088,13.446,13.446,0,0,1-9.686-4.912,4.556,4.556,0,0,0-.632,2.35A4.719,4.719,0,0,0,11.9,19.126a4.9,4.9,0,0,1-2.14-.6v.07a4.69,4.69,0,0,0,3.789,4.6,4.728,4.728,0,0,1-1.227.175,6.568,6.568,0,0,1-.878-.071,4.757,4.757,0,0,0,4.386,3.265,9.411,9.411,0,0,1-5.86,2C9.578,28.565,9.184,28.53,8.845,28.5Z" transform="translate(0 0)" fill="rgba(255,255,255,0.6)"/>
    </g>
    <g id="Group_6" data-name="Group 6" transform="translate(1547 983.929)">
      <path id="Path_4" data-name="Path 4" d="M44.825,29.9H33.1a3.407,3.407,0,0,0-3.4,3.4V45.025a3.407,3.407,0,0,0,3.4,3.4H44.825a3.407,3.407,0,0,0,3.4-3.4V33.269A3.377,3.377,0,0,0,44.825,29.9ZM38.965,45.236a6.106,6.106,0,1,1,6.106-6.106A6.111,6.111,0,0,1,38.965,45.236Zm6.282-10.914a1.439,1.439,0,1,1,1.439-1.439A1.423,1.423,0,0,1,45.246,34.322Z" transform="translate(-19.277 -19.407)" fill="rgba(255,255,255,0.6)"/>
      <path id="Path_5" data-name="Path 5" d="M49.609,46.2a3.509,3.509,0,1,0,3.509,3.509A3.52,3.52,0,0,0,49.609,46.2Z" transform="translate(-29.922 -29.987)" fill="rgba(255,255,255,0.6)"/>
      <path id="Path_6" data-name="Path 6" d="M19.687,0A19.687,19.687,0,1,0,39.374,19.687,19.68,19.68,0,0,0,19.687,0ZM31.513,25.618a5.961,5.961,0,0,1-5.966,5.966H13.827a5.961,5.961,0,0,1-5.966-5.966V13.862A5.961,5.961,0,0,1,13.827,7.9H25.548a5.961,5.961,0,0,1,5.966,5.966Z" fill="rgba(255,255,255,0.6)"/>
    </g>
  </g>
</svg>
