<svg id="thank-you" xmlns="http://www.w3.org/2000/svg" width="227.591" height="229.702" viewBox="0 0 227.591 229.702">
  <path id="Path_15" data-name="Path 15" d="M233.8,259.129a8.9,8.9,0,0,0-6.659,2.806,9.907,9.907,0,0,0,0,13.621,9.3,9.3,0,0,0,13.318,0,9.9,9.9,0,0,0,0-13.621A8.9,8.9,0,0,0,233.8,259.129Zm0,0" transform="translate(-123.826 -141.769)" fill="rgba(255,255,255,0.83)"/>
  <path id="Path_16" data-name="Path 16" d="M235.988,162.966h9.638l-4.819-10.927Zm0,0" transform="translate(-130.655 -83.476)" fill="rgba(255,255,255,0.83)"/>
  <path id="Path_17" data-name="Path 17" d="M185.214,0H42.377A42.623,42.623,0,0,0,0,42.77V161.448a42.623,42.623,0,0,0,42.377,42.77H85.783l23.3,23.513a6.624,6.624,0,0,0,9.43,0l23.3-23.513h43.406a42.623,42.623,0,0,0,42.377-42.77V42.77A42.62,42.62,0,0,0,185.214,0ZM61.281,66.745h-8.79V91.478H47.6V66.745h-8.79v-4.52H61.281Zm5.308-4.52H71.48V74.907H85.87V62.226h4.891V91.478H85.87V79.509H71.48v11.97H66.589Zm16.5,67.923V141.7H78.115V130.149l-10.781-17.7h5.35l7.918,13.31,7.921-13.31h5.348Zm37.774,7.513a15.792,15.792,0,0,1-21.727,0,15.463,15.463,0,0,1,0-21.6,15.792,15.792,0,0,1,21.727,0,15.458,15.458,0,0,1,0,21.6Zm-.538-46.183-2.9-6.654H102.911l-2.9,6.654H94.785l12.771-29.253h5.225l12.771,29.253Zm35.287,37.372q0,6.322-3.44,9.732a13.144,13.144,0,0,1-17.666,0q-3.441-3.409-3.442-9.732V112.445h4.893v16.2A9.507,9.507,0,0,0,137.95,135a7.369,7.369,0,0,0,10.781,0,9.5,9.5,0,0,0,1.992-6.362v-16.2h4.891Zm.582-37.372h-5.308L134.468,70.135V91.478h-4.895V62.226h4.895L151.3,84.07V62.226H156.2Zm26.786,0L173.36,78.673l-4.23,4.6v8.2h-4.891V62.226h4.891V76.5L182.4,62.226h6.218L176.968,75.031l11.818,16.447Zm0,0" transform="translate(0)" fill="rgba(255,255,255,0.76)"/>
</svg>
